<?xml version="1.0" encoding="us-ascii" standalone="no"?><svg xmlns="http://www.w3.org/2000/svg" xmlns:xlink="http://www.w3.org/1999/xlink" contentStyleType="text/css" height="196px" preserveAspectRatio="none" style="width:416px;height:196px;background:#FFFFFF;" version="1.1" viewBox="0 0 416 196" width="416px" zoomAndPan="magnify"><defs/><g><!--class repo_versions--><g id="elem_repo_versions"><rect codeLine="3" fill="#F1F1F1" height="97.4648" id="repo_versions" rx="2.5" ry="2.5" style="stroke:#181818;stroke-width:0.5;" width="128" x="7" y="7"/><ellipse cx="22" cy="23" fill="#ADD1B2" rx="11" ry="11" style="stroke:#181818;stroke-width:1.0;"/><path d="M26.1143,29 L18.3945,29 L18.3945,16.6069 L26.1143,16.6069 L26.1143,18.7651 L20.8433,18.7651 L20.8433,21.438 L25.6162,21.438 L25.6162,23.5962 L20.8433,23.5962 L20.8433,26.8418 L26.1143,26.8418 Z " fill="#000000"/><text fill="#000000" font-family="sans-serif" font-size="14" lengthAdjust="spacing" textLength="96" x="36" y="28.291">repo_versions</text><line style="stroke:#181818;stroke-width:0.5;" x1="8" x2="134" y1="39" y2="39"/><ellipse cx="18" cy="52.7441" fill="#000000" rx="3" ry="3" style="stroke:#000000;stroke-width:1.0;"/><text fill="#000000" font-family="sans-serif" font-size="14" lengthAdjust="spacing" textLength="50" x="27" y="56.5352">version</text><text fill="#000000" font-family="sans-serif" font-size="14" lengthAdjust="spacing" textLength="72" x="27" y="73.0234">timestamp</text><text fill="#000000" font-family="sans-serif" font-size="14" lengthAdjust="spacing" textLength="57" x="27" y="89.5117">client_id</text><line style="stroke:#181818;stroke-width:0.5;" x1="8" x2="134" y1="96.4648" y2="96.4648"/></g><!--class current_data--><g id="elem_current_data"><rect codeLine="9" fill="#F1F1F1" height="80.9766" id="current_data" rx="2.5" ry="2.5" style="stroke:#181818;stroke-width:0.5;" width="119" x="170.5" y="15"/><ellipse cx="185.5" cy="31" fill="#ADD1B2" rx="11" ry="11" style="stroke:#181818;stroke-width:1.0;"/><path d="M189.6143,37 L181.8945,37 L181.8945,24.6069 L189.6143,24.6069 L189.6143,26.7651 L184.3433,26.7651 L184.3433,29.438 L189.1162,29.438 L189.1162,31.5962 L184.3433,31.5962 L184.3433,34.8418 L189.6143,34.8418 Z " fill="#000000"/><text fill="#000000" font-family="sans-serif" font-size="14" lengthAdjust="spacing" textLength="87" x="199.5" y="36.291">current_data</text><line style="stroke:#181818;stroke-width:0.5;" x1="171.5" x2="288.5" y1="47" y2="47"/><ellipse cx="181.5" cy="60.7441" fill="#000000" rx="3" ry="3" style="stroke:#000000;stroke-width:1.0;"/><text fill="#000000" font-family="sans-serif" font-size="14" lengthAdjust="spacing" textLength="23" x="190.5" y="64.5352">key</text><text fill="#000000" font-family="sans-serif" font-size="14" lengthAdjust="spacing" textLength="36" x="190.5" y="81.0234">value</text><line style="stroke:#181818;stroke-width:0.5;" x1="171.5" x2="288.5" y1="87.9766" y2="87.9766"/></g><g id="elem_GMN4"><path d="M51,164 L51,189.3105 A0,0 0 0 0 51,189.3105 L409,189.3105 A0,0 0 0 0 409,189.3105 L409,174 L399,164 L234,164 L230,96.13 L226,164 L51,164 A0,0 0 0 0 51,164 " fill="#FEFFDD" style="stroke:#181818;stroke-width:0.5;"/><path d="M399,164 L399,174 L409,174 L399,164 " fill="#FEFFDD" style="stroke:#181818;stroke-width:0.5;"/><text fill="#000000" font-family="sans-serif" font-size="13" lengthAdjust="spacing" textLength="337" x="57" y="181.5684">key === "repo.version" contains current repo version</text></g><!--SRC=[LOv12iCm30JlVeN8iOV-m6y9QgnIaLWojX88fN-lRTn0TPAMtTMKbILXnWWR2zcP23JRIvqZCROJCYMT3yg5LGgy7TIvmH3wPHof6CRKhsNZcfmvkC_LiUmvDp6WuQzYfRCl1suxDQ-e4JpKJ2Feyo_ZgXcyzp0rcljuFi6YOiWLQvWxxCL64g2LVW40]--></g></svg>