<?xml version="1.0" encoding="us-ascii" standalone="no"?><svg xmlns="http://www.w3.org/2000/svg" xmlns:xlink="http://www.w3.org/1999/xlink" contentStyleType="text/css" height="284px" preserveAspectRatio="none" style="width:599px;height:284px;background:#FFFFFF;" version="1.1" viewBox="0 0 599 284" width="599px" zoomAndPan="magnify"><defs/><g><!--class lionweb_nodes--><g id="elem_lionweb_nodes"><rect codeLine="3" fill="#F1F1F1" height="97.4648" id="lionweb_nodes" rx="2.5" ry="2.5" style="stroke:#181818;stroke-width:0.5;" width="135" x="231.5" y="7"/><ellipse cx="246.5" cy="23" fill="#ADD1B2" rx="11" ry="11" style="stroke:#181818;stroke-width:1.0;"/><path d="M250.6143,29 L242.8945,29 L242.8945,16.6069 L250.6143,16.6069 L250.6143,18.7651 L245.3433,18.7651 L245.3433,21.438 L250.1162,21.438 L250.1162,23.5962 L245.3433,23.5962 L245.3433,26.8418 L250.6143,26.8418 Z " fill="#000000"/><text fill="#000000" font-family="sans-serif" font-size="14" lengthAdjust="spacing" textLength="103" x="260.5" y="28.291">lionweb_nodes</text><line style="stroke:#181818;stroke-width:0.5;" x1="232.5" x2="365.5" y1="39" y2="39"/><ellipse cx="242.5" cy="52.7441" fill="#000000" rx="3" ry="3" style="stroke:#000000;stroke-width:1.0;"/><text fill="#000000" font-family="sans-serif" font-size="14" lengthAdjust="spacing" textLength="57" x="251.5" y="56.5352">id &#171;KEY&#187;</text><line style="stroke:#181818;stroke-width:1.0;" x1="232.5" x2="365.5" y1="63.4883" y2="63.4883"/><ellipse cx="242.5" cy="77.2324" fill="#000000" rx="3" ry="3" style="stroke:#000000;stroke-width:1.0;"/><text fill="#000000" font-family="sans-serif" font-size="14" lengthAdjust="spacing" textLength="60" x="251.5" y="81.0234">classifier</text><ellipse cx="242.5" cy="93.7207" fill="#000000" rx="3" ry="3" style="stroke:#000000;stroke-width:1.0;"/><text fill="#000000" font-family="sans-serif" font-size="14" lengthAdjust="spacing" textLength="45" x="251.5" y="97.5117">parent</text></g><!--class lionweb_properties--><g id="elem_lionweb_properties"><rect codeLine="9" fill="#F1F1F1" height="113.9531" id="lionweb_properties" rx="2.5" ry="2.5" style="stroke:#181818;stroke-width:0.5;" width="164" x="7" y="164"/><ellipse cx="22" cy="180" fill="#ADD1B2" rx="11" ry="11" style="stroke:#181818;stroke-width:1.0;"/><path d="M26.1143,186 L18.3945,186 L18.3945,173.6069 L26.1143,173.6069 L26.1143,175.7651 L20.8433,175.7651 L20.8433,178.438 L25.6162,178.438 L25.6162,180.5962 L20.8433,180.5962 L20.8433,183.8418 L26.1143,183.8418 Z " fill="#000000"/><text fill="#000000" font-family="sans-serif" font-size="14" lengthAdjust="spacing" textLength="132" x="36" y="185.291">lionweb_properties</text><line style="stroke:#181818;stroke-width:0.5;" x1="8" x2="170" y1="196" y2="196"/><ellipse cx="18" cy="209.7441" fill="#000000" rx="3" ry="3" style="stroke:#000000;stroke-width:1.0;"/><text fill="#000000" font-family="sans-serif" font-size="14" lengthAdjust="spacing" textLength="70" x="27" y="213.5352">p_id &#171;key&#187;</text><line style="stroke:#181818;stroke-width:1.0;" x1="8" x2="170" y1="220.4883" y2="220.4883"/><ellipse cx="18" cy="234.2324" fill="#000000" rx="3" ry="3" style="stroke:#000000;stroke-width:1.0;"/><text fill="#000000" font-family="sans-serif" font-size="14" lengthAdjust="spacing" textLength="105" x="27" y="238.0234">property: jsonb</text><ellipse cx="18" cy="250.7207" fill="#000000" rx="3" ry="3" style="stroke:#000000;stroke-width:1.0;"/><text fill="#000000" font-family="sans-serif" font-size="14" lengthAdjust="spacing" textLength="71" x="27" y="254.5117">value: text</text><ellipse cx="18" cy="267.209" fill="#000000" rx="3" ry="3" style="stroke:#000000;stroke-width:1.0;"/><text fill="#000000" font-family="sans-serif" font-size="14" lengthAdjust="spacing" textLength="98" x="27" y="271">node_id &lt;FK&gt;</text></g><!--class lionweb_containments--><g id="elem_lionweb_containments"><rect codeLine="16" fill="#F1F1F1" height="113.9531" id="lionweb_containments" rx="2.5" ry="2.5" style="stroke:#181818;stroke-width:0.5;" width="186" x="206" y="164"/><ellipse cx="221" cy="180" fill="#ADD1B2" rx="11" ry="11" style="stroke:#181818;stroke-width:1.0;"/><path d="M225.1143,186 L217.3945,186 L217.3945,173.6069 L225.1143,173.6069 L225.1143,175.7651 L219.8433,175.7651 L219.8433,178.438 L224.6162,178.438 L224.6162,180.5962 L219.8433,180.5962 L219.8433,183.8418 L225.1143,183.8418 Z " fill="#000000"/><text fill="#000000" font-family="sans-serif" font-size="14" lengthAdjust="spacing" textLength="154" x="235" y="185.291">lionweb_containments</text><line style="stroke:#181818;stroke-width:0.5;" x1="207" x2="391" y1="196" y2="196"/><ellipse cx="217" cy="209.7441" fill="#000000" rx="3" ry="3" style="stroke:#000000;stroke-width:1.0;"/><text fill="#000000" font-family="sans-serif" font-size="14" lengthAdjust="spacing" textLength="68" x="226" y="213.5352">c_id &#171;key&#187;</text><line style="stroke:#181818;stroke-width:1.0;" x1="207" x2="391" y1="220.4883" y2="220.4883"/><ellipse cx="217" cy="234.2324" fill="#000000" rx="3" ry="3" style="stroke:#000000;stroke-width:1.0;"/><text fill="#000000" font-family="sans-serif" font-size="14" lengthAdjust="spacing" textLength="106" x="226" y="238.0234">classifier: jsonb</text><ellipse cx="217" cy="250.7207" fill="#000000" rx="3" ry="3" style="stroke:#000000;stroke-width:1.0;"/><text fill="#000000" font-family="sans-serif" font-size="14" lengthAdjust="spacing" textLength="101" x="226" y="254.5117">children: text[]</text><ellipse cx="217" cy="267.209" fill="#000000" rx="3" ry="3" style="stroke:#000000;stroke-width:1.0;"/><text fill="#000000" font-family="sans-serif" font-size="14" lengthAdjust="spacing" textLength="98" x="226" y="271">node_id &lt;FK&gt;</text></g><!--class lionweb_references--><g id="elem_lionweb_references"><rect codeLine="23" fill="#F1F1F1" height="113.9531" id="lionweb_references" rx="2.5" ry="2.5" style="stroke:#181818;stroke-width:0.5;" width="165" x="427.5" y="164"/><ellipse cx="442.5" cy="180" fill="#ADD1B2" rx="11" ry="11" style="stroke:#181818;stroke-width:1.0;"/><path d="M446.6143,186 L438.8945,186 L438.8945,173.6069 L446.6143,173.6069 L446.6143,175.7651 L441.3433,175.7651 L441.3433,178.438 L446.1162,178.438 L446.1162,180.5962 L441.3433,180.5962 L441.3433,183.8418 L446.6143,183.8418 Z " fill="#000000"/><text fill="#000000" font-family="sans-serif" font-size="14" lengthAdjust="spacing" textLength="133" x="456.5" y="185.291">lionweb_references</text><line style="stroke:#181818;stroke-width:0.5;" x1="428.5" x2="591.5" y1="196" y2="196"/><ellipse cx="438.5" cy="209.7441" fill="#000000" rx="3" ry="3" style="stroke:#000000;stroke-width:1.0;"/><text fill="#000000" font-family="sans-serif" font-size="14" lengthAdjust="spacing" textLength="67" x="447.5" y="213.5352">r_id &#171;key&#187;</text><line style="stroke:#181818;stroke-width:1.0;" x1="428.5" x2="591.5" y1="220.4883" y2="220.4883"/><ellipse cx="438.5" cy="234.2324" fill="#000000" rx="3" ry="3" style="stroke:#000000;stroke-width:1.0;"/><text fill="#000000" font-family="sans-serif" font-size="14" lengthAdjust="spacing" textLength="111" x="447.5" y="238.0234">reference: jsonb</text><ellipse cx="438.5" cy="250.7207" fill="#000000" rx="3" ry="3" style="stroke:#000000;stroke-width:1.0;"/><text fill="#000000" font-family="sans-serif" font-size="14" lengthAdjust="spacing" textLength="93" x="447.5" y="254.5117">targets: text[]</text><ellipse cx="438.5" cy="267.209" fill="#000000" rx="3" ry="3" style="stroke:#000000;stroke-width:1.0;"/><text fill="#000000" font-family="sans-serif" font-size="14" lengthAdjust="spacing" textLength="98" x="447.5" y="271">node_id &lt;FK&gt;</text></g><!--link lionweb_nodes to lionweb_properties--><g id="link_lionweb_nodes_lionweb_properties"><path codeLine="30" d="M223.4,56 C162.01,56 89,56 89,56 C89,56 89,98.1 89,145.75 " fill="none" id="lionweb_nodes-lionweb_properties" style="stroke:#181818;stroke-width:1.0;"/><line style="stroke:#181818;stroke-width:1.0;" x1="227.4" x2="227.4" y1="52" y2="60"/><line style="stroke:#181818;stroke-width:1.0;" x1="224.4" x2="224.4" y1="52" y2="60"/><line style="stroke:#181818;stroke-width:1.0;" x1="223.4" x2="231.4" y1="56" y2="56"/><line style="stroke:#181818;stroke-width:1.0;" x1="89" x2="95" y1="155.75" y2="163.75"/><line style="stroke:#181818;stroke-width:1.0;" x1="89" x2="83" y1="155.75" y2="163.75"/><line style="stroke:#181818;stroke-width:1.0;" x1="89" x2="89" y1="155.75" y2="163.75"/><ellipse cx="89" cy="149.75" fill="none" rx="4" ry="4" style="stroke:#181818;stroke-width:1.0;"/></g><!--link lionweb_nodes to lionweb_containments--><g id="link_lionweb_nodes_lionweb_containments"><path codeLine="31" d="M299,112.26 C299,130.95 299,126.44 299,145.84 " fill="none" id="lionweb_nodes-lionweb_containments" style="stroke:#181818;stroke-width:1.0;"/><line style="stroke:#181818;stroke-width:1.0;" x1="295" x2="303" y1="108.26" y2="108.26"/><line style="stroke:#181818;stroke-width:1.0;" x1="295" x2="303" y1="111.26" y2="111.26"/><line style="stroke:#181818;stroke-width:1.0;" x1="299" x2="299" y1="112.26" y2="104.26"/><line style="stroke:#181818;stroke-width:1.0;" x1="299" x2="305" y1="155.84" y2="163.84"/><line style="stroke:#181818;stroke-width:1.0;" x1="299" x2="293" y1="155.84" y2="163.84"/><line style="stroke:#181818;stroke-width:1.0;" x1="299" x2="299" y1="155.84" y2="163.84"/><ellipse cx="299" cy="149.84" fill="none" rx="4" ry="4" style="stroke:#181818;stroke-width:1.0;"/></g><!--link lionweb_nodes to lionweb_references--><g id="link_lionweb_nodes_lionweb_references"><path codeLine="32" d="M374.63,56 C436.35,56 510,56 510,56 C510,56 510,98.1 510,145.75 " fill="none" id="lionweb_nodes-lionweb_references" style="stroke:#181818;stroke-width:1.0;"/><line style="stroke:#181818;stroke-width:1.0;" x1="370.63" x2="370.63" y1="60" y2="52"/><line style="stroke:#181818;stroke-width:1.0;" x1="373.63" x2="373.63" y1="60" y2="52"/><line style="stroke:#181818;stroke-width:1.0;" x1="374.63" x2="366.63" y1="56" y2="56"/><line style="stroke:#181818;stroke-width:1.0;" x1="510" x2="516" y1="155.75" y2="163.75"/><line style="stroke:#181818;stroke-width:1.0;" x1="510" x2="504" y1="155.75" y2="163.75"/><line style="stroke:#181818;stroke-width:1.0;" x1="510" x2="510" y1="155.75" y2="163.75"/><ellipse cx="510" cy="149.75" fill="none" rx="4" ry="4" style="stroke:#181818;stroke-width:1.0;"/></g><!--SRC=[ZP5D3e8m44Rtd6BM9bp067QwyGJ665FAgAFGDktuGy2xMx4HK56xV9b-hz_K7KWPOKK1EIdaqY1eopiTHQYOkFHOgpEcQwKpT515uCy8A8F9P3vT94a3uZXmcGldQ4De0_3PFYYwliOPgmrQfawcMJUf1onVKyDmEOQzqoeDz2Jo8uw1ySA1tD_OXCpcoRjIQiM2LE5nAvM3qhPANojtb6U-rCEyNFtbjhX1VqTswjf1ytEuBsPXjyZkkxV_NL3NSQoh3rl_CTZTrO_HjjeD]--></g></svg>