<?xml version="1.0" encoding="us-ascii" standalone="no"?><svg xmlns="http://www.w3.org/2000/svg" xmlns:xlink="http://www.w3.org/1999/xlink" contentStyleType="text/css" height="793px" preserveAspectRatio="none" style="width:1665px;height:793px;background:#FFFFFF;" version="1.1" viewBox="0 0 1665 793" width="1665px" zoomAndPan="magnify"><defs/><g><!--class lionweb_nodes_history--><g id="elem_lionweb_nodes_history"><rect codeLine="3" fill="#F1F1F1" height="187.9063" id="lionweb_nodes_history" rx="2.5" ry="2.5" style="stroke:#181818;stroke-width:0.5;" width="189" x="285.5" y="7"/><ellipse cx="300.5" cy="23" fill="#ADD1B2" rx="11" ry="11" style="stroke:#181818;stroke-width:1.0;"/><path d="M304.6143,29 L296.8945,29 L296.8945,16.6069 L304.6143,16.6069 L304.6143,18.7651 L299.3433,18.7651 L299.3433,21.438 L304.1162,21.438 L304.1162,23.5962 L299.3433,23.5962 L299.3433,26.8418 L304.6143,26.8418 Z " fill="#000000"/><text fill="#000000" font-family="sans-serif" font-size="14" lengthAdjust="spacing" textLength="157" x="314.5" y="28.291">lionweb_nodes_history</text><line style="stroke:#181818;stroke-width:0.5;" x1="286.5" x2="473.5" y1="39" y2="39"/><ellipse cx="296.5" cy="52.7441" fill="#000000" rx="3" ry="3" style="stroke:#000000;stroke-width:1.0;"/><text fill="#000000" font-family="sans-serif" font-size="14" lengthAdjust="spacing" textLength="90" x="305.5" y="56.5352">from_version</text><text fill="#000000" font-family="sans-serif" font-size="14" lengthAdjust="spacing" textLength="71" x="305.5" y="73.0234">to_version</text><line style="stroke:#181818;stroke-width:1.0;" x1="286.5" x2="473.5" y1="79.9766" y2="79.9766"/><ellipse cx="296.5" cy="93.7207" fill="#000000" rx="3" ry="3" style="stroke:#000000;stroke-width:1.0;"/><text fill="#000000" font-family="sans-serif" font-size="14" lengthAdjust="spacing" textLength="13" x="305.5" y="97.5117">id</text><line style="stroke:#181818;stroke-width:1.0;" x1="286.5" x2="473.5" y1="104.4648" y2="104.4648"/><text fill="#000000" font-family="sans-serif" font-size="14" lengthAdjust="spacing" textLength="131" x="291.5" y="122">classifier_language</text><text fill="#000000" font-family="sans-serif" font-size="14" lengthAdjust="spacing" textLength="117" x="291.5" y="138.4883">classifier_version</text><text fill="#000000" font-family="sans-serif" font-size="14" lengthAdjust="spacing" textLength="90" x="291.5" y="154.9766">classifier_key</text><text fill="#000000" font-family="sans-serif" font-size="14" lengthAdjust="spacing" textLength="127" x="291.5" y="171.4648">annotations: text[]</text><text fill="#000000" font-family="sans-serif" font-size="14" lengthAdjust="spacing" textLength="45" x="291.5" y="187.9531">parent</text></g><!--class lionweb_properties_history--><g id="elem_lionweb_properties_history"><rect codeLine="15" fill="#F1F1F1" height="171.418" id="lionweb_properties_history" rx="2.5" ry="2.5" style="stroke:#181818;stroke-width:0.5;" width="218" x="7" y="255"/><ellipse cx="22" cy="271" fill="#ADD1B2" rx="11" ry="11" style="stroke:#181818;stroke-width:1.0;"/><path d="M26.1143,277 L18.3945,277 L18.3945,264.6069 L26.1143,264.6069 L26.1143,266.7651 L20.8433,266.7651 L20.8433,269.438 L25.6162,269.438 L25.6162,271.5962 L20.8433,271.5962 L20.8433,274.8418 L26.1143,274.8418 Z " fill="#000000"/><text fill="#000000" font-family="sans-serif" font-size="14" lengthAdjust="spacing" textLength="186" x="36" y="276.291">lionweb_properties_history</text><line style="stroke:#181818;stroke-width:0.5;" x1="8" x2="224" y1="287" y2="287"/><ellipse cx="18" cy="300.7441" fill="#000000" rx="3" ry="3" style="stroke:#000000;stroke-width:1.0;"/><text fill="#000000" font-family="sans-serif" font-size="14" lengthAdjust="spacing" textLength="90" x="27" y="304.5352">from_version</text><text fill="#000000" font-family="sans-serif" font-size="14" lengthAdjust="spacing" textLength="71" x="27" y="321.0234">to_version</text><line style="stroke:#181818;stroke-width:1.0;" x1="8" x2="224" y1="327.9766" y2="327.9766"/><ellipse cx="18" cy="341.7207" fill="#000000" rx="3" ry="3" style="stroke:#000000;stroke-width:1.0;"/><text fill="#000000" font-family="sans-serif" font-size="14" lengthAdjust="spacing" textLength="98" x="27" y="345.5117">node_id &lt;FK&gt;</text><ellipse cx="18" cy="358.209" fill="#000000" rx="3" ry="3" style="stroke:#000000;stroke-width:1.0;"/><text fill="#000000" font-family="sans-serif" font-size="14" lengthAdjust="spacing" textLength="130" x="27" y="362">property_language</text><ellipse cx="18" cy="374.6973" fill="#000000" rx="3" ry="3" style="stroke:#000000;stroke-width:1.0;"/><text fill="#000000" font-family="sans-serif" font-size="14" lengthAdjust="spacing" textLength="116" x="27" y="378.4883">property_version</text><ellipse cx="18" cy="391.1855" fill="#000000" rx="3" ry="3" style="stroke:#000000;stroke-width:1.0;"/><text fill="#000000" font-family="sans-serif" font-size="14" lengthAdjust="spacing" textLength="89" x="27" y="394.9766">property_key</text><line style="stroke:#181818;stroke-width:1.0;" x1="8" x2="224" y1="401.9297" y2="401.9297"/><text fill="#000000" font-family="sans-serif" font-size="14" lengthAdjust="spacing" textLength="71" x="13" y="419.4648">value: text</text></g><!--class lionweb_containments_history--><g id="elem_lionweb_containments_history"><rect codeLine="26" fill="#F1F1F1" height="171.418" id="lionweb_containments_history" rx="2.5" ry="2.5" style="stroke:#181818;stroke-width:0.5;" width="240" x="260" y="255"/><ellipse cx="275" cy="271" fill="#ADD1B2" rx="11" ry="11" style="stroke:#181818;stroke-width:1.0;"/><path d="M279.1143,277 L271.3945,277 L271.3945,264.6069 L279.1143,264.6069 L279.1143,266.7651 L273.8433,266.7651 L273.8433,269.438 L278.6162,269.438 L278.6162,271.5962 L273.8433,271.5962 L273.8433,274.8418 L279.1143,274.8418 Z " fill="#000000"/><text fill="#000000" font-family="sans-serif" font-size="14" lengthAdjust="spacing" textLength="208" x="289" y="276.291">lionweb_containments_history</text><line style="stroke:#181818;stroke-width:0.5;" x1="261" x2="499" y1="287" y2="287"/><ellipse cx="271" cy="300.7441" fill="#000000" rx="3" ry="3" style="stroke:#000000;stroke-width:1.0;"/><text fill="#000000" font-family="sans-serif" font-size="14" lengthAdjust="spacing" textLength="90" x="280" y="304.5352">from_version</text><text fill="#000000" font-family="sans-serif" font-size="14" lengthAdjust="spacing" textLength="71" x="280" y="321.0234">to_version</text><line style="stroke:#181818;stroke-width:1.0;" x1="261" x2="499" y1="327.9766" y2="327.9766"/><ellipse cx="271" cy="341.7207" fill="#000000" rx="3" ry="3" style="stroke:#000000;stroke-width:1.0;"/><text fill="#000000" font-family="sans-serif" font-size="14" lengthAdjust="spacing" textLength="98" x="280" y="345.5117">node_id &lt;FK&gt;</text><ellipse cx="271" cy="358.209" fill="#000000" rx="3" ry="3" style="stroke:#000000;stroke-width:1.0;"/><text fill="#000000" font-family="sans-serif" font-size="14" lengthAdjust="spacing" textLength="157" x="280" y="362">containment_language</text><ellipse cx="271" cy="374.6973" fill="#000000" rx="3" ry="3" style="stroke:#000000;stroke-width:1.0;"/><text fill="#000000" font-family="sans-serif" font-size="14" lengthAdjust="spacing" textLength="143" x="280" y="378.4883">containment_version</text><ellipse cx="271" cy="391.1855" fill="#000000" rx="3" ry="3" style="stroke:#000000;stroke-width:1.0;"/><text fill="#000000" font-family="sans-serif" font-size="14" lengthAdjust="spacing" textLength="116" x="280" y="394.9766">containment_key</text><line style="stroke:#181818;stroke-width:1.0;" x1="261" x2="499" y1="401.9297" y2="401.9297"/><text fill="#000000" font-family="sans-serif" font-size="14" lengthAdjust="spacing" textLength="101" x="266" y="419.4648">children: text[]</text></g><!--class lionweb_references_history--><g id="elem_lionweb_references_history"><rect codeLine="37" fill="#F1F1F1" height="171.418" id="lionweb_references_history" rx="2.5" ry="2.5" style="stroke:#181818;stroke-width:0.5;" width="219" x="535.5" y="255"/><ellipse cx="550.5" cy="271" fill="#ADD1B2" rx="11" ry="11" style="stroke:#181818;stroke-width:1.0;"/><path d="M554.6143,277 L546.8945,277 L546.8945,264.6069 L554.6143,264.6069 L554.6143,266.7651 L549.3433,266.7651 L549.3433,269.438 L554.1162,269.438 L554.1162,271.5962 L549.3433,271.5962 L549.3433,274.8418 L554.6143,274.8418 Z " fill="#000000"/><text fill="#000000" font-family="sans-serif" font-size="14" lengthAdjust="spacing" textLength="187" x="564.5" y="276.291">lionweb_references_history</text><line style="stroke:#181818;stroke-width:0.5;" x1="536.5" x2="753.5" y1="287" y2="287"/><ellipse cx="546.5" cy="300.7441" fill="#000000" rx="3" ry="3" style="stroke:#000000;stroke-width:1.0;"/><text fill="#000000" font-family="sans-serif" font-size="14" lengthAdjust="spacing" textLength="90" x="555.5" y="304.5352">from_version</text><text fill="#000000" font-family="sans-serif" font-size="14" lengthAdjust="spacing" textLength="71" x="555.5" y="321.0234">to_version</text><line style="stroke:#181818;stroke-width:1.0;" x1="536.5" x2="753.5" y1="327.9766" y2="327.9766"/><ellipse cx="546.5" cy="341.7207" fill="#000000" rx="3" ry="3" style="stroke:#000000;stroke-width:1.0;"/><text fill="#000000" font-family="sans-serif" font-size="14" lengthAdjust="spacing" textLength="98" x="555.5" y="345.5117">node_id &lt;FK&gt;</text><ellipse cx="546.5" cy="358.209" fill="#000000" rx="3" ry="3" style="stroke:#000000;stroke-width:1.0;"/><text fill="#000000" font-family="sans-serif" font-size="14" lengthAdjust="spacing" textLength="136" x="555.5" y="362">reference_language</text><ellipse cx="546.5" cy="374.6973" fill="#000000" rx="3" ry="3" style="stroke:#000000;stroke-width:1.0;"/><text fill="#000000" font-family="sans-serif" font-size="14" lengthAdjust="spacing" textLength="122" x="555.5" y="378.4883">reference_version</text><ellipse cx="546.5" cy="391.1855" fill="#000000" rx="3" ry="3" style="stroke:#000000;stroke-width:1.0;"/><text fill="#000000" font-family="sans-serif" font-size="14" lengthAdjust="spacing" textLength="95" x="555.5" y="394.9766">reference_key</text><line style="stroke:#181818;stroke-width:1.0;" x1="536.5" x2="753.5" y1="401.9297" y2="401.9297"/><text fill="#000000" font-family="sans-serif" font-size="14" lengthAdjust="spacing" textLength="104" x="541.5" y="419.4648">targets: jsonb[]</text></g><!--class lionweb_nodes--><g id="elem_lionweb_nodes"><rect codeLine="49" fill="#FFFFE0" height="155.5508" id="lionweb_nodes" rx="2.5" ry="2.5" style="stroke:#181818;stroke-width:0.5;" width="266" x="1091" y="23"/><ellipse cx="1106" cy="43.3105" fill="#ADD1B2" rx="11" ry="11" style="stroke:#181818;stroke-width:1.0;"/><path d="M1110.1143,49.3105 L1102.3945,49.3105 L1102.3945,36.9175 L1110.1143,36.9175 L1110.1143,39.0757 L1104.8433,39.0757 L1104.8433,41.7485 L1109.6162,41.7485 L1109.6162,43.9067 L1104.8433,43.9067 L1104.8433,47.1523 L1110.1143,47.1523 Z " fill="#000000"/><text fill="#000000" font-family="sans-serif" font-size="12" font-style="italic" lengthAdjust="spacing" textLength="238" x="1118" y="39.6016">&#171;VIEW WHERE to_version === FOREVER&#187;</text><text fill="#000000" font-family="sans-serif" font-size="14" lengthAdjust="spacing" textLength="103" x="1185.5" y="55.668">lionweb_nodes</text><line style="stroke:#181818;stroke-width:0.5;" x1="1092" x2="1356" y1="63.6211" y2="63.6211"/><ellipse cx="1102" cy="77.3652" fill="#000000" rx="3" ry="3" style="stroke:#000000;stroke-width:1.0;"/><text fill="#000000" font-family="sans-serif" font-size="14" lengthAdjust="spacing" textLength="57" x="1111" y="81.1563">id &#171;KEY&#187;</text><line style="stroke:#181818;stroke-width:1.0;" x1="1092" x2="1356" y1="88.1094" y2="88.1094"/><text fill="#000000" font-family="sans-serif" font-size="14" lengthAdjust="spacing" textLength="131" x="1097" y="105.6445">classifier_language</text><text fill="#000000" font-family="sans-serif" font-size="14" lengthAdjust="spacing" textLength="117" x="1097" y="122.1328">classifier_version</text><text fill="#000000" font-family="sans-serif" font-size="14" lengthAdjust="spacing" textLength="90" x="1097" y="138.6211">classifier_key</text><text fill="#000000" font-family="sans-serif" font-size="14" lengthAdjust="spacing" textLength="127" x="1097" y="155.1094">annotations: text[]</text><text fill="#000000" font-family="sans-serif" font-size="14" lengthAdjust="spacing" textLength="45" x="1097" y="171.5977">parent</text></g><!--class lionweb_properties--><g id="elem_lionweb_properties"><rect codeLine="64" fill="#FFFFE0" height="139.0625" id="lionweb_properties" rx="2.5" ry="2.5" style="stroke:#181818;stroke-width:0.5;" width="266" x="790" y="271"/><ellipse cx="805" cy="291.3105" fill="#ADD1B2" rx="11" ry="11" style="stroke:#181818;stroke-width:1.0;"/><path d="M809.1143,297.3105 L801.3945,297.3105 L801.3945,284.9175 L809.1143,284.9175 L809.1143,287.0757 L803.8433,287.0757 L803.8433,289.7485 L808.6162,289.7485 L808.6162,291.9067 L803.8433,291.9067 L803.8433,295.1523 L809.1143,295.1523 Z " fill="#000000"/><text fill="#000000" font-family="sans-serif" font-size="12" font-style="italic" lengthAdjust="spacing" textLength="238" x="817" y="287.6016">&#171;VIEW WHERE to_version === FOREVER&#187;</text><text fill="#000000" font-family="sans-serif" font-size="14" lengthAdjust="spacing" textLength="132" x="870" y="303.668">lionweb_properties</text><line style="stroke:#181818;stroke-width:0.5;" x1="791" x2="1055" y1="311.6211" y2="311.6211"/><ellipse cx="801" cy="325.3652" fill="#000000" rx="3" ry="3" style="stroke:#000000;stroke-width:1.0;"/><text fill="#000000" font-family="sans-serif" font-size="14" lengthAdjust="spacing" textLength="98" x="810" y="329.1563">node_id &lt;FK&gt;</text><ellipse cx="801" cy="341.8535" fill="#000000" rx="3" ry="3" style="stroke:#000000;stroke-width:1.0;"/><text fill="#000000" font-family="sans-serif" font-size="14" lengthAdjust="spacing" textLength="130" x="810" y="345.6445">property_language</text><ellipse cx="801" cy="358.3418" fill="#000000" rx="3" ry="3" style="stroke:#000000;stroke-width:1.0;"/><text fill="#000000" font-family="sans-serif" font-size="14" lengthAdjust="spacing" textLength="116" x="810" y="362.1328">property_version</text><ellipse cx="801" cy="374.8301" fill="#000000" rx="3" ry="3" style="stroke:#000000;stroke-width:1.0;"/><text fill="#000000" font-family="sans-serif" font-size="14" lengthAdjust="spacing" textLength="89" x="810" y="378.6211">property_key</text><line style="stroke:#181818;stroke-width:1.0;" x1="791" x2="1055" y1="385.5742" y2="385.5742"/><text fill="#000000" font-family="sans-serif" font-size="14" lengthAdjust="spacing" textLength="71" x="796" y="403.1094">value: text</text></g><!--class lionweb_containments--><g id="elem_lionweb_containments"><rect codeLine="72" fill="#FFFFE0" height="139.0625" id="lionweb_containments" rx="2.5" ry="2.5" style="stroke:#181818;stroke-width:0.5;" width="266" x="1091" y="271"/><ellipse cx="1106" cy="291.3105" fill="#ADD1B2" rx="11" ry="11" style="stroke:#181818;stroke-width:1.0;"/><path d="M1110.1143,297.3105 L1102.3945,297.3105 L1102.3945,284.9175 L1110.1143,284.9175 L1110.1143,287.0757 L1104.8433,287.0757 L1104.8433,289.7485 L1109.6162,289.7485 L1109.6162,291.9067 L1104.8433,291.9067 L1104.8433,295.1523 L1110.1143,295.1523 Z " fill="#000000"/><text fill="#000000" font-family="sans-serif" font-size="12" font-style="italic" lengthAdjust="spacing" textLength="238" x="1118" y="287.6016">&#171;VIEW WHERE to_version === FOREVER&#187;</text><text fill="#000000" font-family="sans-serif" font-size="14" lengthAdjust="spacing" textLength="154" x="1160" y="303.668">lionweb_containments</text><line style="stroke:#181818;stroke-width:0.5;" x1="1092" x2="1356" y1="311.6211" y2="311.6211"/><ellipse cx="1102" cy="325.3652" fill="#000000" rx="3" ry="3" style="stroke:#000000;stroke-width:1.0;"/><text fill="#000000" font-family="sans-serif" font-size="14" lengthAdjust="spacing" textLength="98" x="1111" y="329.1563">node_id &lt;FK&gt;</text><ellipse cx="1102" cy="341.8535" fill="#000000" rx="3" ry="3" style="stroke:#000000;stroke-width:1.0;"/><text fill="#000000" font-family="sans-serif" font-size="14" lengthAdjust="spacing" textLength="157" x="1111" y="345.6445">containment_language</text><ellipse cx="1102" cy="358.3418" fill="#000000" rx="3" ry="3" style="stroke:#000000;stroke-width:1.0;"/><text fill="#000000" font-family="sans-serif" font-size="14" lengthAdjust="spacing" textLength="143" x="1111" y="362.1328">containment_version</text><ellipse cx="1102" cy="374.8301" fill="#000000" rx="3" ry="3" style="stroke:#000000;stroke-width:1.0;"/><text fill="#000000" font-family="sans-serif" font-size="14" lengthAdjust="spacing" textLength="116" x="1111" y="378.6211">containment_key</text><line style="stroke:#181818;stroke-width:1.0;" x1="1092" x2="1356" y1="385.5742" y2="385.5742"/><text fill="#000000" font-family="sans-serif" font-size="14" lengthAdjust="spacing" textLength="101" x="1097" y="403.1094">children: text[]</text></g><!--class lionweb_references--><g id="elem_lionweb_references"><rect codeLine="80" fill="#FFFFE0" height="139.0625" id="lionweb_references" rx="2.5" ry="2.5" style="stroke:#181818;stroke-width:0.5;" width="266" x="1392" y="271"/><ellipse cx="1407" cy="291.3105" fill="#ADD1B2" rx="11" ry="11" style="stroke:#181818;stroke-width:1.0;"/><path d="M1411.1143,297.3105 L1403.3945,297.3105 L1403.3945,284.9175 L1411.1143,284.9175 L1411.1143,287.0757 L1405.8433,287.0757 L1405.8433,289.7485 L1410.6162,289.7485 L1410.6162,291.9067 L1405.8433,291.9067 L1405.8433,295.1523 L1411.1143,295.1523 Z " fill="#000000"/><text fill="#000000" font-family="sans-serif" font-size="12" font-style="italic" lengthAdjust="spacing" textLength="238" x="1419" y="287.6016">&#171;VIEW WHERE to_version === FOREVER&#187;</text><text fill="#000000" font-family="sans-serif" font-size="14" lengthAdjust="spacing" textLength="133" x="1471.5" y="303.668">lionweb_references</text><line style="stroke:#181818;stroke-width:0.5;" x1="1393" x2="1657" y1="311.6211" y2="311.6211"/><ellipse cx="1403" cy="325.3652" fill="#000000" rx="3" ry="3" style="stroke:#000000;stroke-width:1.0;"/><text fill="#000000" font-family="sans-serif" font-size="14" lengthAdjust="spacing" textLength="98" x="1412" y="329.1563">node_id &lt;FK&gt;</text><ellipse cx="1403" cy="341.8535" fill="#000000" rx="3" ry="3" style="stroke:#000000;stroke-width:1.0;"/><text fill="#000000" font-family="sans-serif" font-size="14" lengthAdjust="spacing" textLength="136" x="1412" y="345.6445">reference_language</text><ellipse cx="1403" cy="358.3418" fill="#000000" rx="3" ry="3" style="stroke:#000000;stroke-width:1.0;"/><text fill="#000000" font-family="sans-serif" font-size="14" lengthAdjust="spacing" textLength="122" x="1412" y="362.1328">reference_version</text><ellipse cx="1403" cy="374.8301" fill="#000000" rx="3" ry="3" style="stroke:#000000;stroke-width:1.0;"/><text fill="#000000" font-family="sans-serif" font-size="14" lengthAdjust="spacing" textLength="95" x="1412" y="378.6211">reference_key</text><line style="stroke:#181818;stroke-width:1.0;" x1="1393" x2="1657" y1="385.5742" y2="385.5742"/><text fill="#000000" font-family="sans-serif" font-size="14" lengthAdjust="spacing" textLength="104" x="1398" y="403.1094">targets: jsonb[]</text></g><g id="elem_GMN16"><path d="M605,486 L605,786.9004 A0,0 0 0 0 605,786.9004 L1241,786.9004 A0,0 0 0 0 1241,786.9004 L1241,496 L1231,486 L927,486 L923,410.27 L919,486 L605,486 A0,0 0 0 0 605,486 " fill="#FFFFE0" style="stroke:#181818;stroke-width:0.5;"/><path d="M1231,486 L1231,496 L1241,496 L1231,486 " fill="#FFFFE0" style="stroke:#181818;stroke-width:0.5;"/><text fill="#000000" font-family="sans-serif" font-size="13" lengthAdjust="spacing" textLength="525" x="611" y="503.5684">All insert, update and delete queries on these views trigger Postgres functions that:</text><text fill="#000000" font-family="sans-serif" font-size="13" lengthAdjust="spacing" textLength="102" x="611" y="518.8789">First increments</text><text fill="#000000" font-family="sans-serif" font-size="13" font-style="italic" lengthAdjust="spacing" textLength="127" x="717" y="518.8789">current repo version</text><text fill="#000000" font-family="sans-serif" font-size="13" lengthAdjust="spacing" textLength="63" x="844" y="518.8789">, and then</text><text fill="#000000" font-family="sans-serif" font-size="13" lengthAdjust="spacing" textLength="4" x="611" y="534.1895">&#160;</text><text fill="#000000" font-family="sans-serif" font-size="13" font-weight="bold" lengthAdjust="spacing" textLength="47" x="611" y="549.5">INSERT</text><ellipse cx="616.5" cy="560.0527" fill="#000000" rx="2.5" ry="2.5" style="stroke:#000000;stroke-width:0.0;"/><text fill="#000000" font-family="sans-serif" font-size="13" lengthAdjust="spacing" textLength="319" x="623" y="564.8105">Insert in corresponding &lt;table&gt;_history table with</text><rect fill="#000000" height="3.5" style="stroke:#000000;stroke-width:0.0;" width="3.5" x="620" y="572.8633"/><text fill="#000000" font-family="sans-serif" font-size="13" font-style="italic" font-weight="bold" lengthAdjust="spacing" textLength="89" x="627" y="580.1211">from_version</text><text fill="#000000" font-family="sans-serif" font-size="13" lengthAdjust="spacing" textLength="14" x="720" y="580.1211">:=</text><text fill="#000000" font-family="sans-serif" font-size="13" font-style="italic" lengthAdjust="spacing" textLength="127" x="738" y="580.1211">current repo version</text><text fill="#000000" font-family="sans-serif" font-size="13" lengthAdjust="spacing" textLength="31" x="865" y="580.1211">, and</text><rect fill="#000000" height="3.5" style="stroke:#000000;stroke-width:0.0;" width="3.5" x="620" y="588.1738"/><text fill="#000000" font-family="sans-serif" font-size="13" font-style="italic" font-weight="bold" lengthAdjust="spacing" textLength="70" x="627" y="595.4316">to_version</text><text fill="#000000" font-family="sans-serif" font-size="13" lengthAdjust="spacing" textLength="14" x="701" y="595.4316">:=</text><text fill="#000000" font-family="sans-serif" font-size="13" font-style="italic" lengthAdjust="spacing" textLength="55" x="719" y="595.4316">FOREVER</text><text fill="#000000" font-family="sans-serif" font-size="13" lengthAdjust="spacing" textLength="4" x="611" y="610.7422">&#160;</text><text fill="#000000" font-family="sans-serif" font-size="13" font-weight="bold" lengthAdjust="spacing" textLength="51" x="611" y="626.0527">DELETE</text><ellipse cx="616.5" cy="636.6055" fill="#000000" rx="2.5" ry="2.5" style="stroke:#000000;stroke-width:0.0;"/><text fill="#000000" font-family="sans-serif" font-size="13" lengthAdjust="spacing" textLength="355" x="623" y="641.3633">In corresponding &lt;table&gt;_history table change row with</text><text fill="#000000" font-family="sans-serif" font-size="13" font-style="italic" font-weight="bold" lengthAdjust="spacing" textLength="70" x="982" y="641.3633">to_version</text><text fill="#000000" font-family="sans-serif" font-size="13" lengthAdjust="spacing" textLength="30" x="1056" y="641.3633">===</text><text fill="#000000" font-family="sans-serif" font-size="13" font-style="italic" lengthAdjust="spacing" textLength="55" x="1090" y="641.3633">FOREVER</text><rect fill="#000000" height="3.5" style="stroke:#000000;stroke-width:0.0;" width="3.5" x="620" y="649.416"/><text fill="#000000" font-family="sans-serif" font-size="13" font-style="italic" font-weight="bold" lengthAdjust="spacing" textLength="70" x="627" y="656.6738">to_version</text><text fill="#000000" font-family="sans-serif" font-size="13" lengthAdjust="spacing" textLength="14" x="701" y="656.6738">:=</text><text fill="#000000" font-family="sans-serif" font-size="13" font-style="italic" lengthAdjust="spacing" textLength="127" x="719" y="656.6738">current repo version</text><text fill="#000000" font-family="sans-serif" font-size="13" lengthAdjust="spacing" textLength="20" x="850" y="656.6738">- 1</text><text fill="#000000" font-family="sans-serif" font-size="13" lengthAdjust="spacing" textLength="4" x="611" y="671.9844">&#160;</text><text fill="#000000" font-family="sans-serif" font-size="13" font-weight="bold" lengthAdjust="spacing" textLength="55" x="611" y="687.2949">UPDATE</text><ellipse cx="616.5" cy="697.8477" fill="#000000" rx="2.5" ry="2.5" style="stroke:#000000;stroke-width:0.0;"/><text fill="#000000" font-family="sans-serif" font-size="13" lengthAdjust="spacing" textLength="436" x="623" y="702.6055">Update existing row in corresponding &lt;table&gt;_history table row with</text><text fill="#000000" font-family="sans-serif" font-size="13" font-style="italic" font-weight="bold" lengthAdjust="spacing" textLength="70" x="1063" y="702.6055">to_version</text><text fill="#000000" font-family="sans-serif" font-size="13" lengthAdjust="spacing" textLength="30" x="1137" y="702.6055">===</text><text fill="#000000" font-family="sans-serif" font-size="13" font-style="italic" lengthAdjust="spacing" textLength="55" x="1171" y="702.6055">FOREVER</text><rect fill="#000000" height="3.5" style="stroke:#000000;stroke-width:0.0;" width="3.5" x="620" y="710.6582"/><text fill="#000000" font-family="sans-serif" font-size="13" lengthAdjust="spacing" textLength="45" x="627" y="717.916">change</text><text fill="#000000" font-family="sans-serif" font-size="13" font-style="italic" font-weight="bold" lengthAdjust="spacing" textLength="70" x="676" y="717.916">to_version</text><text fill="#000000" font-family="sans-serif" font-size="13" lengthAdjust="spacing" textLength="14" x="750" y="717.916">:=</text><text fill="#000000" font-family="sans-serif" font-size="13" font-style="italic" lengthAdjust="spacing" textLength="127" x="768" y="717.916">current repo version</text><text fill="#000000" font-family="sans-serif" font-size="13" lengthAdjust="spacing" textLength="16" x="899" y="717.916">-1</text><text fill="#000000" font-family="sans-serif" font-size="13" lengthAdjust="spacing" textLength="4" x="611" y="733.2266">&#160;</text><ellipse cx="616.5" cy="743.7793" fill="#000000" rx="2.5" ry="2.5" style="stroke:#000000;stroke-width:0.0;"/><text fill="#000000" font-family="sans-serif" font-size="13" lengthAdjust="spacing" textLength="375" x="623" y="748.5371">Insert in corresponding &lt;table&gt;_history table new row with</text><rect fill="#000000" height="3.5" style="stroke:#000000;stroke-width:0.0;" width="3.5" x="620" y="756.5898"/><text fill="#000000" font-family="sans-serif" font-size="13" font-style="italic" font-weight="bold" lengthAdjust="spacing" textLength="89" x="627" y="763.8477">from_version</text><text fill="#000000" font-family="sans-serif" font-size="13" lengthAdjust="spacing" textLength="14" x="720" y="763.8477">:=</text><text fill="#000000" font-family="sans-serif" font-size="13" font-style="italic" lengthAdjust="spacing" textLength="127" x="738" y="763.8477">current repo version</text><text fill="#000000" font-family="sans-serif" font-size="13" lengthAdjust="spacing" textLength="31" x="865" y="763.8477">, and</text><rect fill="#000000" height="3.5" style="stroke:#000000;stroke-width:0.0;" width="3.5" x="620" y="771.9004"/><text fill="#000000" font-family="sans-serif" font-size="13" font-style="italic" font-weight="bold" lengthAdjust="spacing" textLength="70" x="627" y="779.1582">to_version</text><text fill="#000000" font-family="sans-serif" font-size="13" lengthAdjust="spacing" textLength="14" x="701" y="779.1582">:=</text><text fill="#000000" font-family="sans-serif" font-size="13" font-style="italic" lengthAdjust="spacing" textLength="55" x="719" y="779.1582">FOREVER</text></g><!--link lionweb_nodes_history to lionweb_properties_history--><g id="link_lionweb_nodes_history_lionweb_properties_history"><path codeLine="60" d="M277.44,101 C201.68,101 116,101 116,101 C116,101 116,167.99 116,236.71 " fill="none" id="lionweb_nodes_history-lionweb_properties_history" style="stroke:#181818;stroke-width:1.0;"/><line style="stroke:#181818;stroke-width:1.0;" x1="281.44" x2="281.44" y1="97" y2="105"/><line style="stroke:#181818;stroke-width:1.0;" x1="278.44" x2="278.44" y1="97" y2="105"/><line style="stroke:#181818;stroke-width:1.0;" x1="277.44" x2="285.44" y1="101" y2="101"/><line style="stroke:#181818;stroke-width:1.0;" x1="116" x2="122" y1="246.71" y2="254.71"/><line style="stroke:#181818;stroke-width:1.0;" x1="116" x2="110" y1="246.71" y2="254.71"/><line style="stroke:#181818;stroke-width:1.0;" x1="116" x2="116" y1="246.71" y2="254.71"/><ellipse cx="116" cy="240.71" fill="none" rx="4" ry="4" style="stroke:#181818;stroke-width:1.0;"/></g><!--link lionweb_nodes_history to lionweb_containments_history--><g id="link_lionweb_nodes_history_lionweb_containments_history"><path codeLine="61" d="M380,203.31 C380,222.95 380,217.54 380,236.84 " fill="none" id="lionweb_nodes_history-lionweb_containments_history" style="stroke:#181818;stroke-width:1.0;"/><line style="stroke:#181818;stroke-width:1.0;" x1="376" x2="384" y1="199.31" y2="199.31"/><line style="stroke:#181818;stroke-width:1.0;" x1="376" x2="384" y1="202.31" y2="202.31"/><line style="stroke:#181818;stroke-width:1.0;" x1="380" x2="380" y1="203.31" y2="195.31"/><line style="stroke:#181818;stroke-width:1.0;" x1="380" x2="386" y1="246.84" y2="254.84"/><line style="stroke:#181818;stroke-width:1.0;" x1="380" x2="374" y1="246.84" y2="254.84"/><line style="stroke:#181818;stroke-width:1.0;" x1="380" x2="380" y1="246.84" y2="254.84"/><ellipse cx="380" cy="240.84" fill="none" rx="4" ry="4" style="stroke:#181818;stroke-width:1.0;"/></g><!--link lionweb_nodes_history to lionweb_references_history--><g id="link_lionweb_nodes_history_lionweb_references_history"><path codeLine="62" d="M482.55,187 C558.65,187 645,187 645,187 C645,187 645,201.61 645,236.77 " fill="none" id="lionweb_nodes_history-lionweb_references_history" style="stroke:#181818;stroke-width:1.0;"/><line style="stroke:#181818;stroke-width:1.0;" x1="478.55" x2="478.55" y1="191" y2="183"/><line style="stroke:#181818;stroke-width:1.0;" x1="481.55" x2="481.55" y1="191" y2="183"/><line style="stroke:#181818;stroke-width:1.0;" x1="482.55" x2="474.55" y1="187" y2="187"/><line style="stroke:#181818;stroke-width:1.0;" x1="645" x2="651" y1="246.77" y2="254.77"/><line style="stroke:#181818;stroke-width:1.0;" x1="645" x2="639" y1="246.77" y2="254.77"/><line style="stroke:#181818;stroke-width:1.0;" x1="645" x2="645" y1="246.77" y2="254.77"/><ellipse cx="645" cy="240.77" fill="none" rx="4" ry="4" style="stroke:#181818;stroke-width:1.0;"/></g><!--link lionweb_nodes to lionweb_properties--><g id="link_lionweb_nodes_lionweb_properties"><path codeLine="89" d="M1082.66,101 C1002.15,101 923,101 923,101 C923,101 923,182.19 923,252.9 " fill="none" id="lionweb_nodes-lionweb_properties" style="stroke:#181818;stroke-width:1.0;"/><line style="stroke:#181818;stroke-width:1.0;" x1="1086.66" x2="1086.66" y1="97" y2="105"/><line style="stroke:#181818;stroke-width:1.0;" x1="1083.66" x2="1083.66" y1="97" y2="105"/><line style="stroke:#181818;stroke-width:1.0;" x1="1082.66" x2="1090.66" y1="101" y2="101"/><line style="stroke:#181818;stroke-width:1.0;" x1="923" x2="929" y1="262.9" y2="270.9"/><line style="stroke:#181818;stroke-width:1.0;" x1="923" x2="917" y1="262.9" y2="270.9"/><line style="stroke:#181818;stroke-width:1.0;" x1="923" x2="923" y1="262.9" y2="270.9"/><ellipse cx="923" cy="256.9" fill="none" rx="4" ry="4" style="stroke:#181818;stroke-width:1.0;"/></g><!--link lionweb_nodes to lionweb_containments--><g id="link_lionweb_nodes_lionweb_containments"><path codeLine="90" d="M1224,187.09 C1224,216.71 1224,224.22 1224,253 " fill="none" id="lionweb_nodes-lionweb_containments" style="stroke:#181818;stroke-width:1.0;"/><line style="stroke:#181818;stroke-width:1.0;" x1="1220" x2="1228" y1="183.09" y2="183.09"/><line style="stroke:#181818;stroke-width:1.0;" x1="1220" x2="1228" y1="186.09" y2="186.09"/><line style="stroke:#181818;stroke-width:1.0;" x1="1224" x2="1224" y1="187.09" y2="179.09"/><line style="stroke:#181818;stroke-width:1.0;" x1="1224" x2="1230" y1="263" y2="271"/><line style="stroke:#181818;stroke-width:1.0;" x1="1224" x2="1218" y1="263" y2="271"/><line style="stroke:#181818;stroke-width:1.0;" x1="1224" x2="1224" y1="263" y2="271"/><ellipse cx="1224" cy="257" fill="none" rx="4" ry="4" style="stroke:#181818;stroke-width:1.0;"/></g><!--link lionweb_nodes to lionweb_references--><g id="link_lionweb_nodes_lionweb_references"><path codeLine="91" d="M1365.34,101 C1445.85,101 1525,101 1525,101 C1525,101 1525,182.19 1525,252.9 " fill="none" id="lionweb_nodes-lionweb_references" style="stroke:#181818;stroke-width:1.0;"/><line style="stroke:#181818;stroke-width:1.0;" x1="1361.34" x2="1361.34" y1="105" y2="97"/><line style="stroke:#181818;stroke-width:1.0;" x1="1364.34" x2="1364.34" y1="105" y2="97"/><line style="stroke:#181818;stroke-width:1.0;" x1="1365.34" x2="1357.34" y1="101" y2="101"/><line style="stroke:#181818;stroke-width:1.0;" x1="1525" x2="1531" y1="262.9" y2="270.9"/><line style="stroke:#181818;stroke-width:1.0;" x1="1525" x2="1519" y1="262.9" y2="270.9"/><line style="stroke:#181818;stroke-width:1.0;" x1="1525" x2="1525" y1="262.9" y2="270.9"/><ellipse cx="1525" cy="256.9" fill="none" rx="4" ry="4" style="stroke:#181818;stroke-width:1.0;"/></g><!--SRC=[pLJRRjf047tVhnYfRrQGrLS4bYB5g2XH6z5S55KHMkp1tiRikhiB12NzzuwDWnT323JqmXEUdPazP-QSDGz2vbpp2MH2ebta24hRL366qWgxeB2ISnmDfOhH35DXhD8BU690Fm_6Mas6CzI6iigGLMkVhLQLA6BtEyguCM8iK0ypBfCfJx0PTxiuuGTSb24kfRBSKePfWyL7- -s-Z1CN0iv-Dk7dMkMehNWFXs84Gn53ftSULA6gxMATXXDt6pdX5nfLxndFfhZaiGazKj9o8ISKFYvuft4JltkqJi4zQR28Kf75DFxLGZQeQ1mZ9KH7tiAgRPD6VR1EeeutA5Yk4xGagUz6oL59OQiHeDEvwOUtSFif78GELEXskz3xCWXlma4Gm8SBaQJs3hDCpLTC2-oTy_0k2Fwo9HZRRcPuVcwrrDCEh-nPk4sfUvPkAeEzRk7tJFy_CF6HuVzB6yEHkVnP9wzR-7NPlv7exlADr7fIZ94x4KRAMZK1DTucQtTAx3JBG4X3HoSmpMDEnLp646E6zFV757LHGfEsAHg4cS2v0Qj5ag26IsLiekbyF9LH-IHG6hTjrXFQMEeRQLngqVUZgIuU21fbhg2Qhk-VbBTHRycOv_K_Vmq7Lvx7FEYNcAW5QOWAJQvaB6G27Sj76GOhXvUVC1Ss1Mf0ztYU-yPxdkz3kxlx_fV2MbTrMIKkto_mdOKNuLLOuTiBM9IIm10qwR74kEMQGiBkFJl0RES0BVXOeBk-F3kjq5qlDucF1AO0Lzo_voWFX5eHF1Hn0VZ07KkSr-1-UzUmtxAHCWid_G80]--></g></svg>