<?xml version="1.0" encoding="us-ascii" standalone="no"?><svg xmlns="http://www.w3.org/2000/svg" xmlns:xlink="http://www.w3.org/1999/xlink" contentStyleType="text/css" height="318px" preserveAspectRatio="none" style="width:599px;height:318px;background:#FFFFFF;" version="1.1" viewBox="0 0 599 318" width="599px" zoomAndPan="magnify"><defs/><g><!--class lionweb_nodes--><g id="elem_lionweb_nodes"><rect codeLine="3" fill="#F1F1F1" height="113.9531" id="lionweb_nodes" rx="2.5" ry="2.5" style="stroke:#181818;stroke-width:0.5;" width="153" x="222.5" y="7"/><ellipse cx="245.6" cy="23" fill="#ADD1B2" rx="11" ry="11" style="stroke:#181818;stroke-width:1.0;"/><path d="M249.7143,29 L241.9945,29 L241.9945,16.6069 L249.7143,16.6069 L249.7143,18.7651 L244.4433,18.7651 L244.4433,21.438 L249.2162,21.438 L249.2162,23.5962 L244.4433,23.5962 L244.4433,26.8418 L249.7143,26.8418 Z " fill="#000000"/><text fill="#000000" font-family="sans-serif" font-size="14" lengthAdjust="spacing" textLength="103" x="261.4" y="28.291">lionweb_nodes</text><line style="stroke:#181818;stroke-width:0.5;" x1="223.5" x2="374.5" y1="39" y2="39"/><ellipse cx="233.5" cy="52.7441" fill="#000000" rx="3" ry="3" style="stroke:#000000;stroke-width:1.0;"/><text fill="#000000" font-family="sans-serif" font-size="14" lengthAdjust="spacing" textLength="57" x="242.5" y="56.5352">id &#171;KEY&#187;</text><line style="stroke:#181818;stroke-width:1.0;" x1="223.5" x2="374.5" y1="63.4883" y2="63.4883"/><ellipse cx="233.5" cy="77.2324" fill="#000000" rx="3" ry="3" style="stroke:#000000;stroke-width:1.0;"/><text fill="#000000" font-family="sans-serif" font-size="14" lengthAdjust="spacing" textLength="60" x="242.5" y="81.0234">classifier</text><ellipse cx="233.5" cy="93.7207" fill="#000000" rx="3" ry="3" style="stroke:#000000;stroke-width:1.0;"/><text fill="#000000" font-family="sans-serif" font-size="14" lengthAdjust="spacing" textLength="127" x="242.5" y="97.5117">annotations: text[]</text><ellipse cx="233.5" cy="110.209" fill="#000000" rx="3" ry="3" style="stroke:#000000;stroke-width:1.0;"/><text fill="#000000" font-family="sans-serif" font-size="14" lengthAdjust="spacing" textLength="45" x="242.5" y="114">parent</text></g><!--class lionweb_properties--><g id="elem_lionweb_properties"><rect codeLine="10" fill="#F1F1F1" height="130.4414" id="lionweb_properties" rx="2.5" ry="2.5" style="stroke:#181818;stroke-width:0.5;" width="164" x="7" y="181"/><ellipse cx="22" cy="197" fill="#ADD1B2" rx="11" ry="11" style="stroke:#181818;stroke-width:1.0;"/><path d="M26.1143,203 L18.3945,203 L18.3945,190.6069 L26.1143,190.6069 L26.1143,192.7651 L20.8433,192.7651 L20.8433,195.438 L25.6162,195.438 L25.6162,197.5962 L20.8433,197.5962 L20.8433,200.8418 L26.1143,200.8418 Z " fill="#000000"/><text fill="#000000" font-family="sans-serif" font-size="14" lengthAdjust="spacing" textLength="132" x="36" y="202.291">lionweb_properties</text><line style="stroke:#181818;stroke-width:0.5;" x1="8" x2="170" y1="213" y2="213"/><ellipse cx="18" cy="226.7441" fill="#000000" rx="3" ry="3" style="stroke:#000000;stroke-width:1.0;"/><text fill="#000000" font-family="sans-serif" font-size="14" lengthAdjust="spacing" textLength="98" x="27" y="230.5352">node_id &lt;FK&gt;</text><ellipse cx="18" cy="243.2324" fill="#000000" rx="3" ry="3" style="stroke:#000000;stroke-width:1.0;"/><text fill="#000000" font-family="sans-serif" font-size="14" lengthAdjust="spacing" textLength="130" x="27" y="247.0234">property_language</text><ellipse cx="18" cy="259.7207" fill="#000000" rx="3" ry="3" style="stroke:#000000;stroke-width:1.0;"/><text fill="#000000" font-family="sans-serif" font-size="14" lengthAdjust="spacing" textLength="116" x="27" y="263.5117">property_version</text><ellipse cx="18" cy="276.209" fill="#000000" rx="3" ry="3" style="stroke:#000000;stroke-width:1.0;"/><text fill="#000000" font-family="sans-serif" font-size="14" lengthAdjust="spacing" textLength="89" x="27" y="280">property_key</text><line style="stroke:#181818;stroke-width:1.0;" x1="8" x2="170" y1="286.9531" y2="286.9531"/><text fill="#000000" font-family="sans-serif" font-size="14" lengthAdjust="spacing" textLength="71" x="13" y="304.4883">value: text</text></g><!--class lionweb_containments--><g id="elem_lionweb_containments"><rect codeLine="18" fill="#F1F1F1" height="130.4414" id="lionweb_containments" rx="2.5" ry="2.5" style="stroke:#181818;stroke-width:0.5;" width="186" x="206" y="181"/><ellipse cx="221" cy="197" fill="#ADD1B2" rx="11" ry="11" style="stroke:#181818;stroke-width:1.0;"/><path d="M225.1143,203 L217.3945,203 L217.3945,190.6069 L225.1143,190.6069 L225.1143,192.7651 L219.8433,192.7651 L219.8433,195.438 L224.6162,195.438 L224.6162,197.5962 L219.8433,197.5962 L219.8433,200.8418 L225.1143,200.8418 Z " fill="#000000"/><text fill="#000000" font-family="sans-serif" font-size="14" lengthAdjust="spacing" textLength="154" x="235" y="202.291">lionweb_containments</text><line style="stroke:#181818;stroke-width:0.5;" x1="207" x2="391" y1="213" y2="213"/><ellipse cx="217" cy="226.7441" fill="#000000" rx="3" ry="3" style="stroke:#000000;stroke-width:1.0;"/><text fill="#000000" font-family="sans-serif" font-size="14" lengthAdjust="spacing" textLength="98" x="226" y="230.5352">node_id &lt;FK&gt;</text><ellipse cx="217" cy="243.2324" fill="#000000" rx="3" ry="3" style="stroke:#000000;stroke-width:1.0;"/><text fill="#000000" font-family="sans-serif" font-size="14" lengthAdjust="spacing" textLength="157" x="226" y="247.0234">containment_language</text><ellipse cx="217" cy="259.7207" fill="#000000" rx="3" ry="3" style="stroke:#000000;stroke-width:1.0;"/><text fill="#000000" font-family="sans-serif" font-size="14" lengthAdjust="spacing" textLength="143" x="226" y="263.5117">containment_version</text><ellipse cx="217" cy="276.209" fill="#000000" rx="3" ry="3" style="stroke:#000000;stroke-width:1.0;"/><text fill="#000000" font-family="sans-serif" font-size="14" lengthAdjust="spacing" textLength="116" x="226" y="280">containment_key</text><line style="stroke:#181818;stroke-width:1.0;" x1="207" x2="391" y1="286.9531" y2="286.9531"/><text fill="#000000" font-family="sans-serif" font-size="14" lengthAdjust="spacing" textLength="101" x="212" y="304.4883">children: text[]</text></g><!--class lionweb_references--><g id="elem_lionweb_references"><rect codeLine="26" fill="#F1F1F1" height="130.4414" id="lionweb_references" rx="2.5" ry="2.5" style="stroke:#181818;stroke-width:0.5;" width="165" x="427.5" y="181"/><ellipse cx="442.5" cy="197" fill="#ADD1B2" rx="11" ry="11" style="stroke:#181818;stroke-width:1.0;"/><path d="M446.6143,203 L438.8945,203 L438.8945,190.6069 L446.6143,190.6069 L446.6143,192.7651 L441.3433,192.7651 L441.3433,195.438 L446.1162,195.438 L446.1162,197.5962 L441.3433,197.5962 L441.3433,200.8418 L446.6143,200.8418 Z " fill="#000000"/><text fill="#000000" font-family="sans-serif" font-size="14" lengthAdjust="spacing" textLength="133" x="456.5" y="202.291">lionweb_references</text><line style="stroke:#181818;stroke-width:0.5;" x1="428.5" x2="591.5" y1="213" y2="213"/><ellipse cx="438.5" cy="226.7441" fill="#000000" rx="3" ry="3" style="stroke:#000000;stroke-width:1.0;"/><text fill="#000000" font-family="sans-serif" font-size="14" lengthAdjust="spacing" textLength="98" x="447.5" y="230.5352">node_id &lt;FK&gt;</text><ellipse cx="438.5" cy="243.2324" fill="#000000" rx="3" ry="3" style="stroke:#000000;stroke-width:1.0;"/><text fill="#000000" font-family="sans-serif" font-size="14" lengthAdjust="spacing" textLength="136" x="447.5" y="247.0234">reference_language</text><ellipse cx="438.5" cy="259.7207" fill="#000000" rx="3" ry="3" style="stroke:#000000;stroke-width:1.0;"/><text fill="#000000" font-family="sans-serif" font-size="14" lengthAdjust="spacing" textLength="122" x="447.5" y="263.5117">reference_version</text><ellipse cx="438.5" cy="276.209" fill="#000000" rx="3" ry="3" style="stroke:#000000;stroke-width:1.0;"/><text fill="#000000" font-family="sans-serif" font-size="14" lengthAdjust="spacing" textLength="95" x="447.5" y="280">reference_key</text><line style="stroke:#181818;stroke-width:1.0;" x1="428.5" x2="591.5" y1="286.9531" y2="286.9531"/><text fill="#000000" font-family="sans-serif" font-size="14" lengthAdjust="spacing" textLength="104" x="433.5" y="304.4883">targets: jsonb[]</text></g><!--link lionweb_nodes to lionweb_properties--><g id="link_lionweb_nodes_lionweb_properties"><path codeLine="35" d="M214.29,64 C154.3,64 89,64 89,64 C89,64 89,110.58 89,162.81 " fill="none" id="lionweb_nodes-lionweb_properties" style="stroke:#181818;stroke-width:1.0;"/><line style="stroke:#181818;stroke-width:1.0;" x1="218.29" x2="218.29" y1="60" y2="68"/><line style="stroke:#181818;stroke-width:1.0;" x1="215.29" x2="215.29" y1="60" y2="68"/><line style="stroke:#181818;stroke-width:1.0;" x1="214.29" x2="222.29" y1="64" y2="64"/><line style="stroke:#181818;stroke-width:1.0;" x1="89" x2="95" y1="172.81" y2="180.81"/><line style="stroke:#181818;stroke-width:1.0;" x1="89" x2="83" y1="172.81" y2="180.81"/><line style="stroke:#181818;stroke-width:1.0;" x1="89" x2="89" y1="172.81" y2="180.81"/><ellipse cx="89" cy="166.81" fill="none" rx="4" ry="4" style="stroke:#181818;stroke-width:1.0;"/></g><!--link lionweb_nodes to lionweb_containments--><g id="link_lionweb_nodes_lionweb_containments"><path codeLine="36" d="M299,129.09 C299,148.06 299,143.33 299,162.86 " fill="none" id="lionweb_nodes-lionweb_containments" style="stroke:#181818;stroke-width:1.0;"/><line style="stroke:#181818;stroke-width:1.0;" x1="295" x2="303" y1="125.09" y2="125.09"/><line style="stroke:#181818;stroke-width:1.0;" x1="295" x2="303" y1="128.09" y2="128.09"/><line style="stroke:#181818;stroke-width:1.0;" x1="299" x2="299" y1="129.09" y2="121.09"/><line style="stroke:#181818;stroke-width:1.0;" x1="299" x2="305" y1="172.86" y2="180.86"/><line style="stroke:#181818;stroke-width:1.0;" x1="299" x2="293" y1="172.86" y2="180.86"/><line style="stroke:#181818;stroke-width:1.0;" x1="299" x2="299" y1="172.86" y2="180.86"/><ellipse cx="299" cy="166.86" fill="none" rx="4" ry="4" style="stroke:#181818;stroke-width:1.0;"/></g><!--link lionweb_nodes to lionweb_references--><g id="link_lionweb_nodes_lionweb_references"><path codeLine="37" d="M383.77,64 C444.1,64 510,64 510,64 C510,64 510,110.58 510,162.81 " fill="none" id="lionweb_nodes-lionweb_references" style="stroke:#181818;stroke-width:1.0;"/><line style="stroke:#181818;stroke-width:1.0;" x1="379.77" x2="379.77" y1="68" y2="60"/><line style="stroke:#181818;stroke-width:1.0;" x1="382.77" x2="382.77" y1="68" y2="60"/><line style="stroke:#181818;stroke-width:1.0;" x1="383.77" x2="375.77" y1="64" y2="64"/><line style="stroke:#181818;stroke-width:1.0;" x1="510" x2="516" y1="172.81" y2="180.81"/><line style="stroke:#181818;stroke-width:1.0;" x1="510" x2="504" y1="172.81" y2="180.81"/><line style="stroke:#181818;stroke-width:1.0;" x1="510" x2="510" y1="172.81" y2="180.81"/><ellipse cx="510" cy="166.81" fill="none" rx="4" ry="4" style="stroke:#181818;stroke-width:1.0;"/></g><!--SRC=[XPB1Ri8m38RlUOgS9_K59jJRTk49fccgJ6jAHh2hnB1LmBjZeADfc237tt_yVx4Jruuw2B2ntX5Atw7b82is1acSz2ep_U2Y8cumshsnUbwiQ-niDd_xACkBK1I3Ndk8qIqTXa408XOGRH9VhU2lV7uD5KtL27FCWxh07GPnITevkpf7li_BlzjNLrzve7OBBURw3aFKZhcynZubte7VuXNidgHc4d2qKVaXI-BBSTBIb2YjP53rolb6XtCRs1rPm2MgeNuyevihfneBKwPHpuW4GekY6_oEJ8iBaPb-37iu50Nl_zdY4sCwv2VMyTKd]--></g></svg>